@startuml

entity User {
   * id: uuid
   full_name: string
   avatar_url: string
   --
   /users: GET
   /users/:id: PUT
}

entity Flag {
    * id: uuid
    * payer_id: uuid
    task: string
    days: int
    * asset_id: uuid
    amount: number
    times_achieved: int
    created_at: datetime
    updated_at: datetime
    --
    /flags/:id: POST
    /flags: GET
    /flags/:id/done: PUT
}

entity Asset {
    * id: uuid
    symbol: string
    price_usd: amount
    paid_at: datetime
    --
    /assets/:id: GET
}

entity Evidence {
    * attachment_id: uuid
    * flag_id: uuid
    type: string
    created_at: datetime
    // updated_at: datetime
    --
    /flags/:flag_id/evidences/:attachment_id: POST
    /flags/:flag_id/evidences: GET
}

entity Witness {
    * flag_id: uuid
    * payee_id: uuid
    --
    /flags/:id/yes: PUT
    /flags/:id/no: PUT
}

entity Payer {
    paid: bool
    --
    /flags/:id/rewards GET
}

entity Payee {
    verified: bool
    --
    /flags/:id/awards GET
}

Payer --|> User
Payee --|> User

Flag "1" --- "*" Evidence: upload
Flag "*" --- "1" Asset: pay
Flag "*" --- "*" Witness: verify
Witness "1" -- "*" Asset: award 
Witness "1" -- "*" User: reward 

@enduml
